<svg xmlns="http://www.w3.org/2000/svg" style="display:none">
    <!-- ========== [ MAIL ] ========== -->
    <symbol id="icon-mail" viewBox="0 -960 960 960" fill="currentColor">
        <path d="M160-160q-33 0-56.5-23.5T80-240v-480q0-33 23.5-56.5T160-800h640q33 0 56.5 23.5T880-720v480q0 33-23.5 56.5T800-160H160Zm320-287q5 0 10.5-1.5T501-453l283-177q8-5 12-12.5t4-16.5q0-20-17-30t-35 1L480-520 212-688q-18-11-35-.5T160-659q0 10 4 17.5t12 11.5l283 177q5 3 10.5 4.5T480-447Z"/>
    </symbol>

    <!-- ========== [ PASSWORD ] ========== -->
    <symbol id="icon-password" viewBox="0 -960 960 960" fill="currentColor">
        <path d="M444-360h72q9 0 15.5-7.5T536-384l-19-105q20-10 31.5-29t11.5-42q0-33-23.5-56.5T480-640q-33 0-56.5 23.5T400-560q0 23 11.5 42t31.5 29l-19 105q-2 9 4.5 16.5T444-360Zm36 276q-7 0-13-1t-12-3q-135-45-215-166.5T160-516v-189q0-25 14.5-45t37.5-29l240-90q14-5 28-5t28 5l240 90q23 9 37.5 29t14.5 45v189q0 140-80 261.5T505-88q-6 2-12 3t-13 1Z"/>
    </symbol>

    <!-- ========== [ VISIBILITY ] ========== -->
    <symbol id="icon-visibility-on" viewBox="0 -960 960 960" fill="currentColor">
        <path d="M480-320q75 0 127.5-52.5T660-500q0-75-52.5-127.5T480-680q-75 0-127.5 52.5T300-500q0 75 52.5 127.5T480-320Zm0-72q-45 0-76.5-31.5T372-500q0-45 31.5-76.5T480-608q45 0 76.5 31.5T588-500q0 45-31.5 76.5T480-392Zm0 192q-134 0-244.5-72T61-462q-5-9-7.5-18.5T51-500q0-10 2.5-19.5T61-538q64-118 174.5-190T480-800q134 0 244.5 72T899-538q5 9 7.5 18.5T909-500q0 10-2.5 19.5T899-462q-64 118-174.5 190T480-200Z"/>
    </symbol>

    <symbol id="icon-visibility-off" viewBox="0 -960 960 960" fill="currentColor">
        <path d="M764-84 624-222q-35 11-71 16.5t-73 5.5q-134 0-245-72T61-462q-5-9-7.5-18.5T51-500q0-10 2.5-19.5T61-538q22-39 47-76t58-66l-83-84q-11-11-11-27.5T84-820q11-11 28-11t28 11l680 680q11 11 11.5 27.5T820-84q-11 11-28 11t-28-11ZM480-320q11 0 21-1t20-4L305-541q-3 10-4 20t-1 21q0 75 52.5 127.5T480-320Zm0-480q134 0 245.5 72.5T900-537q5 8 7.5 17.5T910-500q0 10-2 19.5t-7 17.5q-19 37-42.5 70T806-331q-14 14-33 13t-33-15l-80-80q-7-7-9-16.5t1-19.5q4-13 6-25t2-26q0-75-52.5-127.5T480-680q-14 0-26 2t-25 6q-10 3-20 1t-17-9l-33-33q-19-19-12.5-44t31.5-32q25-5 50.5-8t51.5-3Zm79 226q11 13 18.5 28.5T587-513q1 8-6 11t-13-3l-82-82q-6-6-2.5-13t11.5-7q19 2 35 10.5t29 22.5Z"/>
    </symbol>

    <!-- ========== [ PIN ] ========== -->
    <symbol id="icon-pin" viewBox="0 -960 960 960" fill="currentColor">
        <path d="M240-440q17 0 28.5-11.5T280-480q0-17-11.5-28.5T240-520q-17 0-28.5 11.5T200-480q0 17 11.5 28.5T240-440Zm160 0q17 0 28.5-11.5T440-480q0-17-11.5-28.5T400-520q-17 0-28.5 11.5T360-480q0 17 11.5 28.5T400-440Zm160 0q17 0 28.5-11.5T600-480q0-17-11.5-28.5T560-520q-17 0-28.5 11.5T520-480q0 17 11.5 28.5T560-440Zm160 0q17 0 28.5-11.5T760-480q0-17-11.5-28.5T720-520q-17 0-28.5 11.5T680-480q0 17 11.5 28.5T720-440ZM120-200q-33 0-56.5-23.5T40-280v-400q0-33 23.5-56.5T120-760h124q7-18 22-29t34-11h80q19 0 34 11t22 29h404q33 0 56.5 23.5T920-680v400q0 33-23.5 56.5T840-200H120Z"/>
    </symbol>

    <!-- ========== [ SEND ] ========== -->
    <symbol id="icon-send" viewBox="0 -960 960 960" fill="currentColor">
        <path d="M176-183q-20 8-38-3.5T120-220v-180l320-80-320-80v-180q0-22 18-33.5t38-3.5l616 260q25 11 25 37t-25 37L176-183Z"/>
    </symbol>

    <!-- ========== [ RETURN ] ========== -->
    <symbol id="icon-return" viewBox="0 -960 960 960" fill="currentColor">
        <path d="M472-440h128q17 0 28.5-11.5T640-480q0-17-11.5-28.5T600-520H472l36-36q11-11 11-28t-11-28q-11-11-28-11t-28 11L348-508q-12 12-12 28t12 28l104 104q11 11 28 11t28-11q11-11 11-28t-11-28l-36-36Zm8 360q-83 0-156-31.5T197-197q-54-54-85.5-127T80-480q0-83 31.5-156T197-763q54-54 127-85.5T480-880q83 0 156 31.5T763-763q54 54 85.5 127T880-480q0 83-31.5 156T763-197q-54 54-127 85.5T480-80Z"/>
    </symbol>

    <!-- ========== [ LOGIN ] ========== -->
    <symbol id="icon-login" viewBox="0 -960 960 960" fill="currentColor">
        <path d="M480-440q58 0 99-41t41-99q0-58-41-99t-99-41q-58 0-99 41t-41 99q0 58 41 99t99 41ZM200-120q-33 0-56.5-23.5T120-200v-560q0-33 23.5-56.5T200-840h560q33 0 56.5 23.5T840-760v560q0 33-23.5 56.5T760-120H200Zm0-80h560v-46q-54-53-125.5-83.5T480-360q-83 0-154.5 30.5T200-246v46Z"/>
    </symbol>
</svg>
