<svg xmlns="http://www.w3.org/2000/svg" style="display:none">
    <!-- ========== [ EMPLOYEE ] ========== -->
    <symbol id="icon-employee" viewBox="0 -960 960 960" fill="currentColor">
        <path d="M200-120q-33 0-56.5-23.5T120-200v-560q0-33 23.5-56.5T200-840h168q14-36 44-58t68-22q38 0 68 22t44 58h168q33 0 56.5 23.5T840-760v560q0 33-23.5 56.5T760-120H200Zm280-670q13 0 21.5-8.5T510-820q0-13-8.5-21.5T480-850q-13 0-21.5 8.5T450-820q0 13 8.5 21.5T480-790Zm0 350q58 0 99-41t41-99q0-58-41-99t-99-41q-58 0-99 41t-41 99q0 58 41 99t99 41ZM200-200h560v-46q-54-53-125.5-83.5T480-360q-83 0-154.5 30.5T200-246v46Z"/>
    </symbol>

    <!-- ========== [ SUPPLIER ] ========== -->
    <symbol id="icon-supplier" viewBox="0 -960 960 960" fill="currentColor">
        <path d="M240-160q-50 0-85-35t-35-85H80q-17 0-28.5-11.5T40-320v-400q0-33 23.5-56.5T120-800h480q33 0 56.5 23.5T680-720v80h80q19 0 36 8.5t28 23.5l88 117q4 5 6 11t2 13v147q0 17-11.5 28.5T880-280h-40q0 50-35 85t-85 35q-50 0-85-35t-35-85H360q0 50-35 85t-85 35Zm0-80q17 0 28.5-11.5T280-280q0-17-11.5-28.5T240-320q-17 0-28.5 11.5T200-280q0 17 11.5 28.5T240-240Zm480 0q17 0 28.5-11.5T760-280q0-17-11.5-28.5T720-320q-17 0-28.5 11.5T680-280q0 17 11.5 28.5T720-240Zm-40-200h170l-90-120h-80v120Z"/>
    </symbol>

    <!-- ========== [ DASHBOARD ] ========== -->
    <symbol id="icon-dashboard" viewBox="0 -960 960 960" fill="currentColor">
        <path d="M560-600q-17 0-28.5-11.5T520-640v-160q0-17 11.5-28.5T560-840h240q17 0 28.5 11.5T840-800v160q0 17-11.5 28.5T800-600H560ZM160-440q-17 0-28.5-11.5T120-480v-320q0-17 11.5-28.5T160-840h240q17 0 28.5 11.5T440-800v320q0 17-11.5 28.5T400-440H160Zm400 320q-17 0-28.5-11.5T520-160v-320q0-17 11.5-28.5T560-520h240q17 0 28.5 11.5T840-480v320q0 17-11.5 28.5T800-120H560Zm-400 0q-17 0-28.5-11.5T120-160v-160q0-17 11.5-28.5T160-360h240q17 0 28.5 11.5T440-320v160q0 17-11.5 28.5T400-120H160Z"/>
    </symbol>

    <!-- ========== [ SHOP ] ========== -->
    <symbol id="icon-shop" viewBox="0 -960 960 960" fill="currentColor">
        <path d="M280-80q-33 0-56.5-23.5T200-160q0-33 23.5-56.5T280-240q33 0 56.5 23.5T360-160q0 33-23.5 56.5T280-80Zm400 0q-33 0-56.5-23.5T600-160q0-33 23.5-56.5T680-240q33 0 56.5 23.5T760-160q0 33-23.5 56.5T680-80ZM208-800h590q23 0 35 20.5t1 41.5L692-482q-11 20-29.5 31T622-440H324l-44 80h440q17 0 28.5 11.5T760-320q0 17-11.5 28.5T720-280H280q-45 0-68-39.5t-2-78.5l54-98-144-304H80q-17 0-28.5-11.5T40-840q0-17 11.5-28.5T80-880h65q11 0 21 6t15 17l27 57Z"/>
    </symbol>

    <!-- ========== [ REPORT ] ========== -->
    <symbol id="icon-report" viewBox="0 -960 960 960" fill="currentColor">
        <path d="M200-120q-33 0-56.5-23.5T120-200v-560q0-33 23.5-56.5T200-840h560q33 0 56.5 23.5T840-760v560q0 33-23.5 56.5T760-120H200Zm120-440q-17 0-28.5 11.5T280-520v200q0 17 11.5 28.5T320-280q17 0 28.5-11.5T360-320v-200q0-17-11.5-28.5T320-560Zm160-120q-17 0-28.5 11.5T440-640v320q0 17 11.5 28.5T480-280q17 0 28.5-11.5T520-320v-320q0-17-11.5-28.5T480-680Zm160 240q-17 0-28.5 11.5T600-400v80q0 17 11.5 28.5T640-280q17 0 28.5-11.5T680-320v-80q0-17-11.5-28.5T640-440Z"/>
    </symbol>

    <!-- ========== [ POLICY ] ========== -->
    <symbol id="icon-policy" viewBox="0 -960 960 960" fill="currentColor">
        <path d="M480-84q-7 0-13-1t-12-3q-135-45-215-166.5T160-516v-189q0-25 14.5-45t37.5-29l240-90q14-5 28-5t28 5l240 90q23 9 37.5 29t14.5 45v189q0 63-16.5 122.5T736-280L618-398q11-19 16.5-39.5T640-480q0-66-47-113t-113-47q-66 0-113 47t-47 113q0 66 47 113t113 47q21 0 41.5-5.5T560-342l129 128q-38 45-83.5 76.5T505-88q-6 2-12 3t-13 1Zm0-316q-33 0-56.5-23.5T400-480q0-33 23.5-56.5T480-560q33 0 56.5 23.5T560-480q0 33-23.5 56.5T480-400Z"/>
    </symbol>

    <!-- ========== [ RECOMMENDATION ] ========== -->
    <symbol id="icon-recommendation" viewBox="0 -960 960 960" fill="currentColor">
        <path d="M280-400h66q8 0 15.5-3t13.5-9l187-188q9-9 13.5-20.5T580-643q0-11-4.5-21.5T563-684l-37-38q-9-9-20-13.5t-23-4.5q-11 0-22 4.5T441-722L252-535q-6 6-9 13.5t-3 15.5v66q0 17 11.5 28.5T280-400Zm202-204-38-37 39-39 37 38-38 38Zm-34 204h232q17 0 28.5-11.5T720-440q0-17-11.5-28.5T680-480H528l-80 80ZM240-240l-92 92q-19 19-43.5 8.5T80-177v-623q0-33 23.5-56.5T160-880h640q33 0 56.5 23.5T880-800v480q0 33-23.5 56.5T800-240H240Z"/>
    </symbol>

    <!-- ========== [ INVENTORY ] ========== -->
    <symbol id="icon-inventory" viewBox="0 -960 960 960" fill="currentColor">
        <path d="M200-80q-33 0-56.5-23.5T120-160v-451q-18-11-29-28.5T80-680v-120q0-33 23.5-56.5T160-880h640q33 0 56.5 23.5T880-800v120q0 23-11 40.5T840-611v451q0 33-23.5 56.5T760-80H200Zm-40-600h640v-120H160v120Zm240 280h160q17 0 28.5-11.5T600-440q0-17-11.5-28.5T560-480H400q-17 0-28.5 11.5T360-440q0 17 11.5 28.5T400-400Z"/>
    </symbol>

    <!-- ========== [ MONEY ] ========== -->
    <symbol id="icon-money" viewBox="0 -960 960 960" fill="currentColor">
        <path d="M120-160q-33 0-56.5-23.5T40-240v-400q0-17 11.5-28.5T80-680q17 0 28.5 11.5T120-640v400h640q17 0 28.5 11.5T800-200q0 17-11.5 28.5T760-160H120Zm160-160q-33 0-56.5-23.5T200-400v-320q0-33 23.5-56.5T280-800h560q33 0 56.5 23.5T920-720v320q0 33-23.5 56.5T840-320H280Zm80-80q0-33-23.5-56.5T280-480v80h80Zm400 0h80v-80q-33 0-56.5 23.5T760-400Zm-200-40q50 0 85-35t35-85q0-50-35-85t-85-35q-50 0-85 35t-35 85q0 50 35 85t85 35ZM280-640q33 0 56.5-23.5T360-720h-80v80Zm560 0v-80h-80q0 33 23.5 56.5T840-640Z"/>
     </symbol>

     <!-- ========== [ MEDICINE ] ========== -->
    <symbol id="icon-medicine" viewBox="0 -960 960 960" fill="currentColor">
        <path d="M160-80q-33 0-56.5-23.5T80-160v-480q0-33 23.5-56.5T160-720h160v-80q0-33 23.5-56.5T400-880h160q33 0 56.5 23.5T640-800v80h160q33 0 56.5 23.5T880-640v480q0 33-23.5 56.5T800-80H160Zm240-640h160v-80H400v80Zm40 360v80q0 17 11.5 28.5T480-240q17 0 28.5-11.5T520-280v-80h80q17 0 28.5-11.5T640-400q0-17-11.5-28.5T600-440h-80v-80q0-17-11.5-28.5T480-560q-17 0-28.5 11.5T440-520v80h-80q-17 0-28.5 11.5T320-400q0 17 11.5 28.5T360-360h80Z"/>
    </symbol>

    <!-- ========== [ SEARCH ] ========== -->
    <symbol id="icon-search" viewBox="0 -960 960 960" fill="currentColor">
        <path d="M380-320q-109 0-184.5-75.5T120-580q0-109 75.5-184.5T380-840q109 0 184.5 75.5T640-580q0 44-14 83t-38 69l224 224q11 11 11 28t-11 28q-11 11-28 11t-28-11L532-372q-30 24-69 38t-83 14Zm0-80q75 0 127.5-52.5T560-580q0-75-52.5-127.5T380-760q-75 0-127.5 52.5T200-580q0 75 52.5 127.5T380-400Z"/>
    </symbol>

    <!-- ========== [ DOWNLOAD ] ========== -->
    <symbol id="icon-download" viewBox="0 -960 960 960" fill="currentColor">
        <path d="M480-337q-8 0-15-2.5t-13-8.5L308-492q-12-12-11.5-28t11.5-28q12-12 28.5-12.5T365-549l75 75v-286q0-17 11.5-28.5T480-800q17 0 28.5 11.5T520-760v286l75-75q12-12 28.5-11.5T652-548q11 12 11.5 28T652-492L508-348q-6 6-13 8.5t-15 2.5ZM240-160q-33 0-56.5-23.5T160-240v-80q0-17 11.5-28.5T200-360q17 0 28.5 11.5T240-320v80h480v-80q0-17 11.5-28.5T760-360q17 0 28.5 11.5T800-320v80q0 33-23.5 56.5T720-160H240Z"/>
    </symbol>

    <!-- ========== [ EDIT ] ========== -->
    <symbol id="icon-edit" viewBox="0 -960 960 960" fill="currentColor">
        <path d="M160-120q-17 0-28.5-11.5T120-160v-97q0-16 6-30.5t17-25.5l505-504q12-11 26.5-17t30.5-6q16 0 31 6t26 18l55 56q12 11 17.5 26t5.5 30q0 16-5.5 30.5T817-647L313-143q-11 11-25.5 17t-30.5 6h-97Zm544-528 56-56-56-56-56 56 56 56Z"/>
    </symbol>


    <!-- ========== [ SETTINGS ] ========== -->
    <symbol id="icon-settings" viewBox="0 -960 960 960" fill="currentColor">
        <path d="M433-80q-27 0-46.5-18T363-142l-9-66q-13-5-24.5-12T307-235l-62 26q-25 11-50 2t-39-32l-47-82q-14-23-8-49t27-43l53-40q-1-7-1-13.5v-27q0-6.5 1-13.5l-53-40q-21-17-27-43t8-49l47-82q14-23 39-32t50 2l62 26q11-8 23-15t24-12l9-66q4-26 23.5-44t46.5-18h94q27 0 46.5 18t23.5 44l9 66q13 5 24.5 12t22.5 15l62-26q25-11 50-2t39 32l47 82q14 23 8 49t-27 43l-53 40q1 7 1 13.5v27q0 6.5-2 13.5l53 40q21 17 27 43t-8 49l-48 82q-14 23-39 32t-50-2l-60-26q-11 8-23 15t-24 12l-9 66q-4 26-23.5 44T527-80h-94Zm49-260q58 0 99-41t41-99q0-58-41-99t-99-41q-59 0-99.5 41T342-480q0 58 40.5 99t99.5 41Z"/>
    </symbol>

    <!-- ========== [ RECEIPT ] ========== -->
    <symbol id="icon-receipt" viewBox="0 -960 960 960" fill="currentColor">
        <path d="M120-128v-728q0-7 6-9.5t11 2.5l29 29q6 6 14 6t14-6l32-32q6-6 14-6t14 6l32 32q6 6 14 6t14-6l32-32q6-6 14-6t14 6l32 32q6 6 14 6t14-6l32-32q6-6 14-6t14 6l32 32q6 6 14 6t14-6l32-32q6-6 14-6t14 6l32 32q6 6 14 6t14-6l32-32q6-6 14-6t14 6l32 32q6 6 14 6t14-6l29-29q5-5 11-2.5t6 9.5v728q0 14-12 19t-22-5l-12-12q-6-6-14-6t-14 6l-32 32q-6 6-14 6t-14-6l-32-32q-6-6-14-6t-14 6l-32 32q-6 6-14 6t-14-6l-32-32q-6-6-14-6t-14 6l-32 32q-6 6-14 6t-14-6l-32-32q-6-6-14-6t-14 6l-32 32q-6 6-14 6t-14-6l-32-32q-6-6-14-6t-14 6l-32 32q-6 6-14 6t-14-6l-32-32q-6-6-14-6t-14 6l-12 12q-10 10-22 5t-12-19Zm160-152h400q17 0 28.5-11.5T720-320q0-17-11.5-28.5T680-360H280q-17 0-28.5 11.5T240-320q0 17 11.5 28.5T280-280Zm0-160h400q17 0 28.5-11.5T720-480q0-17-11.5-28.5T680-520H280q-17 0-28.5 11.5T240-480q0 17 11.5 28.5T280-440Zm0-160h400q17 0 28.5-11.5T720-640q0-17-11.5-28.5T680-680H280q-17 0-28.5 11.5T240-640q0 17 11.5 28.5T280-600Z"/>
    </symbol>

    <!-- ========== [ SUCCESS ] ========== -->
    <symbol id="icon-success" viewBox="0 -960 960 960" fill="currentColor">
        <path d="m424-408-86-86q-11-11-28-11t-28 11q-11 11-11 28t11 28l114 114q12 12 28 12t28-12l226-226q11-11 11-28t-11-28q-11-11-28-11t-28 11L424-408Zm56 328q-83 0-156-31.5T197-197q-54-54-85.5-127T80-480q0-83 31.5-156T197-763q54-54 127-85.5T480-880q83 0 156 31.5T763-763q54 54 85.5 127T880-480q0 83-31.5 156T763-197q-54 54-127 85.5T480-80Z"/>
    </symbol>

    <!-- ========== [ WARNING ] ========== -->
    <symbol id="icon-warning" viewBox="0 -960 960 960" fill="currentColor">
        <path d="M109-120q-11 0-20-5.5T75-140q-5-9-5.5-19.5T75-180l370-640q6-10 15.5-15t19.5-5q10 0 19.5 5t15.5 15l370 640q6 10 5.5 20.5T885-140q-5 9-14 14.5t-20 5.5H109Zm371-120q17 0 28.5-11.5T520-280q0-17-11.5-28.5T480-320q-17 0-28.5 11.5T440-280q0 17 11.5 28.5T480-240Zm0-120q17 0 28.5-11.5T520-400v-120q0-17-11.5-28.5T480-560q-17 0-28.5 11.5T440-520v120q0 17 11.5 28.5T480-360Z"/>
    </symbol>

    <!-- ========== [ ERROR ] ========== -->
    <symbol id="icon-error" viewBox="0 -960 960 960" fill="currentColor">
        <path d="M363-120q-16 0-30.5-6T307-143L143-307q-11-11-17-25.5t-6-30.5v-234q0-16 6-30.5t17-25.5l164-164q11-11 25.5-17t30.5-6h234q16 0 30.5 6t25.5 17l164 164q11 11 17 25.5t6 30.5v234q0 16-6 30.5T817-307L653-143q-11 11-25.5 17t-30.5 6H363Zm117-304 86 86q11 11 28 11t28-11q11-11 11-28t-11-28l-86-86 86-86q11-11 11-28t-11-28q-11-11-28-11t-28 11l-86 86-86-86q-11-11-28-11t-28 11q-11 11-11 28t11 28l86 86-86 86q-11 11-11 28t11 28q11 11 28 11t28-11l86-86Z"/>
    </symbol>
</svg>
